<?xml version="1.0" encoding="UTF-8" standalone="no"?>
<!DOCTYPE svg PUBLIC "-//W3C//DTD SVG 1.1//EN"
 "http://www.w3.org/Graphics/SVG/1.1/DTD/svg11.dtd">
<!-- Generated by graphviz version 2.40.1 (20161225.0304)
 -->
<!-- Title: dependencies Pages: 1 -->
<svg width="3091pt" height="284pt"
 viewBox="0.00 0.00 3091.00 284.00" xmlns="http://www.w3.org/2000/svg" xmlns:xlink="http://www.w3.org/1999/xlink">
<g id="graph0" class="graph" transform="scale(1 1) rotate(0) translate(4 280)">
<title>dependencies</title>
<polygon fill="#ffffff" stroke="transparent" points="-4,4 -4,-280 3087,-280 3087,4 -4,4"/>
<text text-anchor="start" x="1520.5091" y="-42.4" font-family="sans-serif" font-weight="bold" font-size="14.00" fill="#000000">Legend</text>
<polygon fill="#ffffb3" stroke="transparent" points="1307.5,-10 1307.5,-30 1327.5,-30 1327.5,-10 1307.5,-10"/>
<text text-anchor="start" x="1331.129" y="-15.4" font-family="sans-serif" font-size="14.00" fill="#000000"> &#160;Declarations</text>
<polygon fill="#8dd3c7" stroke="transparent" points="1420.5,-10 1420.5,-30 1440.5,-30 1440.5,-10 1420.5,-10"/>
<text text-anchor="start" x="1444.2251" y="-15.4" font-family="sans-serif" font-size="14.00" fill="#000000"> &#160;Module</text>
<polygon fill="#80b1d3" stroke="transparent" points="1506.5,-10 1506.5,-30 1526.5,-30 1526.5,-10 1506.5,-10"/>
<text text-anchor="start" x="1530.2812" y="-15.4" font-family="sans-serif" font-size="14.00" fill="#000000"> &#160;Bootstrap</text>
<polygon fill="#fdb462" stroke="transparent" points="1603.5,-10 1603.5,-30 1623.5,-30 1623.5,-10 1603.5,-10"/>
<text text-anchor="start" x="1627.1732" y="-15.4" font-family="sans-serif" font-size="14.00" fill="#000000"> &#160;Providers</text>
<polygon fill="#fb8072" stroke="transparent" points="1699.5,-10 1699.5,-30 1719.5,-30 1719.5,-10 1699.5,-10"/>
<text text-anchor="start" x="1723.2258" y="-15.4" font-family="sans-serif" font-size="14.00" fill="#000000"> &#160;Exports</text>
<g id="clust1" class="cluster">
<title>cluster_AppModule</title>
<polygon fill="none" stroke="#000000" stroke-dasharray="1,5" points="8,-70 8,-268 3075,-268 3075,-70 8,-70"/>
</g>
<g id="clust2" class="cluster">
<title>cluster_AppModule_declarations</title>
<polygon fill="none" stroke="#000000" points="983,-78 983,-130 3067,-130 3067,-78 983,-78"/>
</g>
<g id="clust17" class="cluster">
<title>cluster_AppModule_imports</title>
<polygon fill="none" stroke="#000000" points="16,-78 16,-130 975,-130 975,-78 16,-78"/>
</g>
<g id="clust19" class="cluster">
<title>cluster_AppModule_bootstrap</title>
<polygon fill="none" stroke="#000000" points="1563,-208 1563,-260 1687,-260 1687,-208 1563,-208"/>
</g>
<!-- AppComponent -->
<g id="node1" class="node">
<title>AppComponent</title>
<polygon fill="#ffffb3" stroke="#000000" points="3058.9399,-122 2953.0601,-122 2953.0601,-86 3058.9399,-86 3058.9399,-122"/>
<text text-anchor="middle" x="3006" y="-99.8" font-family="Times,serif" font-size="14.00" fill="#000000">AppComponent</text>
</g>
<!-- AppModule -->
<g id="node15" class="node">
<title>AppModule</title>
<polygon fill="#8dd3c7" stroke="#000000" points="1666.6571,-187 1663.6571,-191 1642.6571,-191 1639.6571,-187 1583.3429,-187 1583.3429,-151 1666.6571,-151 1666.6571,-187"/>
<text text-anchor="middle" x="1625" y="-164.8" font-family="Times,serif" font-size="14.00" fill="#000000">AppModule</text>
</g>
<!-- AppComponent&#45;&gt;AppModule -->
<g id="edge1" class="edge">
<title>AppComponent&#45;&gt;AppModule</title>
<path fill="none" stroke="#000000" d="M3006,-122.1532C3006,-145.7566 3006,-184 3006,-184 3006,-184 1676.7068,-184 1676.7068,-184"/>
<polygon fill="#000000" stroke="#000000" points="1676.7069,-180.5001 1666.7068,-184 1676.7068,-187.5001 1676.7069,-180.5001"/>
</g>
<!-- HomeComponent -->
<g id="node2" class="node">
<title>HomeComponent</title>
<polygon fill="#ffffb3" stroke="#000000" points="2935.5451,-122 2820.4549,-122 2820.4549,-86 2935.5451,-86 2935.5451,-122"/>
<text text-anchor="middle" x="2878" y="-99.8" font-family="Times,serif" font-size="14.00" fill="#000000">HomeComponent</text>
</g>
<!-- HomeComponent&#45;&gt;AppModule -->
<g id="edge2" class="edge">
<title>HomeComponent&#45;&gt;AppModule</title>
<path fill="none" stroke="#000000" d="M2878,-122.0109C2878,-144.4852 2878,-180 2878,-180 2878,-180 1676.6896,-180 1676.6896,-180"/>
<polygon fill="#000000" stroke="#000000" points="1676.6896,-176.5001 1666.6896,-180 1676.6895,-183.5001 1676.6896,-176.5001"/>
</g>
<!-- NavbarComponent -->
<g id="node3" class="node">
<title>NavbarComponent</title>
<polygon fill="#ffffb3" stroke="#000000" points="2802.0297,-122 2679.9703,-122 2679.9703,-86 2802.0297,-86 2802.0297,-122"/>
<text text-anchor="middle" x="2741" y="-99.8" font-family="Times,serif" font-size="14.00" fill="#000000">NavbarComponent</text>
</g>
<!-- NavbarComponent&#45;&gt;AppModule -->
<g id="edge3" class="edge">
<title>NavbarComponent&#45;&gt;AppModule</title>
<path fill="none" stroke="#000000" d="M2741,-122.0449C2741,-143.6623 2741,-177 2741,-177 2741,-177 1676.7117,-177 1676.7117,-177"/>
<polygon fill="#000000" stroke="#000000" points="1676.7118,-173.5001 1666.7117,-177 1676.7117,-180.5001 1676.7118,-173.5001"/>
</g>
<!-- FooterComponent -->
<g id="node4" class="node">
<title>FooterComponent</title>
<polygon fill="#ffffb3" stroke="#000000" points="2661.8809,-122 2544.1191,-122 2544.1191,-86 2661.8809,-86 2661.8809,-122"/>
<text text-anchor="middle" x="2603" y="-99.8" font-family="Times,serif" font-size="14.00" fill="#000000">FooterComponent</text>
</g>
<!-- FooterComponent&#45;&gt;AppModule -->
<g id="edge4" class="edge">
<title>FooterComponent&#45;&gt;AppModule</title>
<path fill="none" stroke="#000000" d="M2603,-122.1289C2603,-142.5724 2603,-173 2603,-173 2603,-173 1676.7106,-173 1676.7106,-173"/>
<polygon fill="#000000" stroke="#000000" points="1676.7106,-169.5001 1666.7106,-173 1676.7105,-176.5001 1676.7106,-169.5001"/>
</g>
<!-- FeedComponent -->
<g id="node5" class="node">
<title>FeedComponent</title>
<polygon fill="#ffffb3" stroke="#000000" points="2526.0452,-122 2417.9548,-122 2417.9548,-86 2526.0452,-86 2526.0452,-122"/>
<text text-anchor="middle" x="2472" y="-99.8" font-family="Times,serif" font-size="14.00" fill="#000000">FeedComponent</text>
</g>
<!-- FeedComponent&#45;&gt;AppModule -->
<g id="edge5" class="edge">
<title>FeedComponent&#45;&gt;AppModule</title>
<path fill="none" stroke="#000000" d="M2472,-122.1061C2472,-141.3391 2472,-169 2472,-169 2472,-169 1676.714,-169 1676.714,-169"/>
<polygon fill="#000000" stroke="#000000" points="1676.714,-165.5001 1666.714,-169 1676.7139,-172.5001 1676.714,-165.5001"/>
</g>
<!-- PerfilLateralComponent -->
<g id="node6" class="node">
<title>PerfilLateralComponent</title>
<polygon fill="#ffffb3" stroke="#000000" points="2400.0702,-122 2247.9298,-122 2247.9298,-86 2400.0702,-86 2400.0702,-122"/>
<text text-anchor="middle" x="2324" y="-99.8" font-family="Times,serif" font-size="14.00" fill="#000000">PerfilLateralComponent</text>
</g>
<!-- PerfilLateralComponent&#45;&gt;AppModule -->
<g id="edge6" class="edge">
<title>PerfilLateralComponent&#45;&gt;AppModule</title>
<path fill="none" stroke="#000000" d="M2324,-122.2667C2324,-140.5552 2324,-166 2324,-166 2324,-166 1676.8915,-166 1676.8915,-166"/>
<polygon fill="#000000" stroke="#000000" points="1676.8916,-162.5001 1666.8915,-166 1676.8915,-169.5001 1676.8916,-162.5001"/>
</g>
<!-- LoginComponent -->
<g id="node7" class="node">
<title>LoginComponent</title>
<polygon fill="#ffffb3" stroke="#000000" points="2230.2758,-122 2115.7242,-122 2115.7242,-86 2230.2758,-86 2230.2758,-122"/>
<text text-anchor="middle" x="2173" y="-99.8" font-family="Times,serif" font-size="14.00" fill="#000000">LoginComponent</text>
</g>
<!-- LoginComponent&#45;&gt;AppModule -->
<g id="edge7" class="edge">
<title>LoginComponent&#45;&gt;AppModule</title>
<path fill="none" stroke="#000000" d="M2173,-122.0336C2173,-139.0597 2173,-162 2173,-162 2173,-162 1677.0907,-162 1677.0907,-162"/>
<polygon fill="#000000" stroke="#000000" points="1677.0907,-158.5001 1667.0907,-162 1677.0907,-165.5001 1677.0907,-158.5001"/>
</g>
<!-- CadastroComponent -->
<g id="node8" class="node">
<title>CadastroComponent</title>
<polygon fill="#ffffb3" stroke="#000000" points="2097.594,-122 1966.406,-122 1966.406,-86 2097.594,-86 2097.594,-122"/>
<text text-anchor="middle" x="2032" y="-99.8" font-family="Times,serif" font-size="14.00" fill="#000000">CadastroComponent</text>
</g>
<!-- CadastroComponent&#45;&gt;AppModule -->
<g id="edge8" class="edge">
<title>CadastroComponent&#45;&gt;AppModule</title>
<path fill="none" stroke="#000000" d="M2032,-122.0091C2032,-138.0494 2032,-159 2032,-159 2032,-159 1677.0232,-159 1677.0232,-159"/>
<polygon fill="#000000" stroke="#000000" points="1677.0232,-155.5001 1667.0232,-159 1677.0232,-162.5001 1677.0232,-155.5001"/>
</g>
<!-- PostTemaComponent -->
<g id="node9" class="node">
<title>PostTemaComponent</title>
<polygon fill="#ffffb3" stroke="#000000" points="1948.823,-122 1811.177,-122 1811.177,-86 1948.823,-86 1948.823,-122"/>
<text text-anchor="middle" x="1880" y="-99.8" font-family="Times,serif" font-size="14.00" fill="#000000">PostTemaComponent</text>
</g>
<!-- PostTemaComponent&#45;&gt;AppModule -->
<g id="edge9" class="edge">
<title>PostTemaComponent&#45;&gt;AppModule</title>
<path fill="none" stroke="#000000" d="M1880,-122.1243C1880,-136.7832 1880,-155 1880,-155 1880,-155 1676.8225,-155 1676.8225,-155"/>
<polygon fill="#000000" stroke="#000000" points="1676.8226,-151.5001 1666.8225,-155 1676.8225,-158.5001 1676.8226,-151.5001"/>
</g>
<!-- PutPostagemComponent -->
<g id="node10" class="node">
<title>PutPostagemComponent</title>
<polygon fill="#ffffb3" stroke="#000000" points="1793.4438,-122 1638.5562,-122 1638.5562,-86 1793.4438,-86 1793.4438,-122"/>
<text text-anchor="middle" x="1716" y="-99.8" font-family="Times,serif" font-size="14.00" fill="#000000">PutPostagemComponent</text>
</g>
<!-- PutPostagemComponent&#45;&gt;AppModule -->
<g id="edge10" class="edge">
<title>PutPostagemComponent&#45;&gt;AppModule</title>
<path fill="none" stroke="#000000" d="M1648.1283,-122.1061C1648.1283,-122.1061 1648.1283,-140.991 1648.1283,-140.991"/>
<polygon fill="#000000" stroke="#000000" points="1644.6284,-140.9909 1648.1283,-150.991 1651.6284,-140.991 1644.6284,-140.9909"/>
</g>
<!-- PutPostagemComponent&#45;&gt;AppModule -->
<g id="edge11" class="edge">
<title>PutPostagemComponent&#45;&gt;AppModule</title>
<path fill="none" stroke="#000000" d="M1657.4783,-122.1061C1657.4783,-122.1061 1657.4783,-140.991 1657.4783,-140.991"/>
<polygon fill="#000000" stroke="#000000" points="1653.9784,-140.9909 1657.4783,-150.991 1660.9784,-140.991 1653.9784,-140.9909"/>
</g>
<!-- DeletePostagemComponent -->
<g id="node11" class="node">
<title>DeletePostagemComponent</title>
<polygon fill="#ffffb3" stroke="#000000" points="1621.3019,-122 1448.6981,-122 1448.6981,-86 1621.3019,-86 1621.3019,-122"/>
<text text-anchor="middle" x="1535" y="-99.8" font-family="Times,serif" font-size="14.00" fill="#000000">DeletePostagemComponent</text>
</g>
<!-- DeletePostagemComponent&#45;&gt;AppModule -->
<g id="edge12" class="edge">
<title>DeletePostagemComponent&#45;&gt;AppModule</title>
<path fill="none" stroke="#000000" d="M1602.1613,-122.1061C1602.1613,-122.1061 1602.1613,-140.991 1602.1613,-140.991"/>
<polygon fill="#000000" stroke="#000000" points="1598.6614,-140.9909 1602.1613,-150.991 1605.6614,-140.991 1598.6614,-140.9909"/>
</g>
<!-- PutTemaComponent -->
<g id="node12" class="node">
<title>PutTemaComponent</title>
<polygon fill="#ffffb3" stroke="#000000" points="1430.8781,-122 1299.1219,-122 1299.1219,-86 1430.8781,-86 1430.8781,-122"/>
<text text-anchor="middle" x="1365" y="-99.8" font-family="Times,serif" font-size="14.00" fill="#000000">PutTemaComponent</text>
</g>
<!-- PutTemaComponent&#45;&gt;AppModule -->
<g id="edge13" class="edge">
<title>PutTemaComponent&#45;&gt;AppModule</title>
<path fill="none" stroke="#000000" d="M1365,-122.1243C1365,-136.7832 1365,-155 1365,-155 1365,-155 1573.2265,-155 1573.2265,-155"/>
<polygon fill="#000000" stroke="#000000" points="1573.2265,-158.5001 1583.2265,-155 1573.2265,-151.5001 1573.2265,-158.5001"/>
</g>
<!-- DeleteTemaComponent -->
<g id="node13" class="node">
<title>DeleteTemaComponent</title>
<polygon fill="#ffffb3" stroke="#000000" points="1280.7366,-122 1131.2634,-122 1131.2634,-86 1280.7366,-86 1280.7366,-122"/>
<text text-anchor="middle" x="1206" y="-99.8" font-family="Times,serif" font-size="14.00" fill="#000000">DeleteTemaComponent</text>
</g>
<!-- DeleteTemaComponent&#45;&gt;AppModule -->
<g id="edge14" class="edge">
<title>DeleteTemaComponent&#45;&gt;AppModule</title>
<path fill="none" stroke="#000000" d="M1206,-122.2819C1206,-137.9478 1206,-158 1206,-158 1206,-158 1573.2928,-158 1573.2928,-158"/>
<polygon fill="#000000" stroke="#000000" points="1573.2929,-161.5001 1583.2928,-158 1573.2928,-154.5001 1573.2929,-161.5001"/>
</g>
<!-- AlertasComponent -->
<g id="node14" class="node">
<title>AlertasComponent</title>
<polygon fill="#ffffb3" stroke="#000000" points="1112.7548,-122 991.2452,-122 991.2452,-86 1112.7548,-86 1112.7548,-122"/>
<text text-anchor="middle" x="1052" y="-99.8" font-family="Times,serif" font-size="14.00" fill="#000000">AlertasComponent</text>
</g>
<!-- AlertasComponent&#45;&gt;AppModule -->
<g id="edge15" class="edge">
<title>AlertasComponent&#45;&gt;AppModule</title>
<path fill="none" stroke="#000000" d="M1052,-122.0352C1052,-138.7344 1052,-161 1052,-161 1052,-161 1573.3297,-161 1573.3297,-161"/>
<polygon fill="#000000" stroke="#000000" points="1573.3297,-164.5001 1583.3297,-161 1573.3297,-157.5001 1573.3297,-164.5001"/>
</g>
<!-- AppComponent  -->
<g id="node23" class="node">
<title>AppComponent </title>
<polygon fill="#80b1d3" stroke="#000000" points="1679.439,-252 1570.561,-252 1570.561,-216 1679.439,-216 1679.439,-252"/>
<text text-anchor="middle" x="1625" y="-229.8" font-family="Times,serif" font-size="14.00" fill="#000000">AppComponent </text>
</g>
<!-- AppModule&#45;&gt;AppComponent  -->
<g id="edge23" class="edge">
<title>AppModule&#45;&gt;AppComponent </title>
<path fill="none" stroke="#000000" stroke-dasharray="1,5" d="M1625,-187.1061C1625,-187.1061 1625,-205.991 1625,-205.991"/>
<polygon fill="#000000" stroke="#000000" points="1621.5001,-205.9909 1625,-215.991 1628.5001,-205.991 1621.5001,-205.9909"/>
</g>
<!-- BrowserModule -->
<g id="node16" class="node">
<title>BrowserModule</title>
<polygon fill="#8dd3c7" stroke="#000000" points="967.4734,-122 964.4734,-126 943.4734,-126 940.4734,-122 860.5266,-122 860.5266,-86 967.4734,-86 967.4734,-122"/>
<text text-anchor="middle" x="914" y="-99.8" font-family="Times,serif" font-size="14.00" fill="#000000">BrowserModule</text>
</g>
<!-- BrowserModule&#45;&gt;AppModule -->
<g id="edge16" class="edge">
<title>BrowserModule&#45;&gt;AppModule</title>
<path fill="none" stroke="#000000" d="M914,-122.302C914,-140.2699 914,-165 914,-165 914,-165 1573.1781,-165 1573.1781,-165"/>
<polygon fill="#000000" stroke="#000000" points="1573.1782,-168.5001 1583.1781,-165 1573.1781,-161.5001 1573.1782,-168.5001"/>
</g>
<!-- AppRoutingModule -->
<g id="node17" class="node">
<title>AppRoutingModule</title>
<polygon fill="#8dd3c7" stroke="#000000" points="842.2744,-122 839.2744,-126 818.2744,-126 815.2744,-122 713.7256,-122 713.7256,-86 842.2744,-86 842.2744,-122"/>
<text text-anchor="middle" x="778" y="-99.8" font-family="Times,serif" font-size="14.00" fill="#000000">AppRoutingModule</text>
</g>
<!-- AppRoutingModule&#45;&gt;AppModule -->
<g id="edge17" class="edge">
<title>AppRoutingModule&#45;&gt;AppModule</title>
<path fill="none" stroke="#000000" d="M778,-122.1686C778,-141.0898 778,-168 778,-168 778,-168 1573.286,-168 1573.286,-168"/>
<polygon fill="#000000" stroke="#000000" points="1573.2861,-171.5001 1583.286,-168 1573.286,-164.5001 1573.2861,-171.5001"/>
</g>
<!-- FontAwesomeModule -->
<g id="node18" class="node">
<title>FontAwesomeModule</title>
<polygon fill="#8dd3c7" stroke="#000000" points="695.7007,-122 692.7007,-126 671.7007,-126 668.7007,-122 554.2993,-122 554.2993,-86 695.7007,-86 695.7007,-122"/>
<text text-anchor="middle" x="625" y="-99.8" font-family="Times,serif" font-size="14.00" fill="#000000">FontAwesomeModule</text>
</g>
<!-- FontAwesomeModule&#45;&gt;AppModule -->
<g id="edge18" class="edge">
<title>FontAwesomeModule&#45;&gt;AppModule</title>
<path fill="none" stroke="#000000" d="M625,-122.308C625,-142.1455 625,-171 625,-171 625,-171 1573.3044,-171 1573.3044,-171"/>
<polygon fill="#000000" stroke="#000000" points="1573.3044,-174.5001 1583.3044,-171 1573.3044,-167.5001 1573.3044,-174.5001"/>
</g>
<!-- HttpClientModule -->
<g id="node19" class="node">
<title>HttpClientModule</title>
<polygon fill="#8dd3c7" stroke="#000000" points="536.1611,-122 533.1611,-126 512.1611,-126 509.1611,-122 417.8389,-122 417.8389,-86 536.1611,-86 536.1611,-122"/>
<text text-anchor="middle" x="477" y="-99.8" font-family="Times,serif" font-size="14.00" fill="#000000">HttpClientModule</text>
</g>
<!-- HttpClientModule&#45;&gt;AppModule -->
<g id="edge19" class="edge">
<title>HttpClientModule&#45;&gt;AppModule</title>
<path fill="none" stroke="#000000" d="M477,-122.0267C477,-142.7672 477,-174 477,-174 477,-174 1573.1229,-174 1573.1229,-174"/>
<polygon fill="#000000" stroke="#000000" points="1573.1229,-177.5001 1583.1229,-174 1573.1228,-170.5001 1573.1229,-177.5001"/>
</g>
<!-- FormsModule -->
<g id="node20" class="node">
<title>FormsModule</title>
<polygon fill="#8dd3c7" stroke="#000000" points="399.8288,-122 396.8288,-126 375.8288,-126 372.8288,-122 304.1712,-122 304.1712,-86 399.8288,-86 399.8288,-122"/>
<text text-anchor="middle" x="352" y="-99.8" font-family="Times,serif" font-size="14.00" fill="#000000">FormsModule</text>
</g>
<!-- FormsModule&#45;&gt;AppModule -->
<g id="edge20" class="edge">
<title>FormsModule&#45;&gt;AppModule</title>
<path fill="none" stroke="#000000" d="M352,-122.2921C352,-144.2057 352,-178 352,-178 352,-178 1573.0076,-178 1573.0076,-178"/>
<polygon fill="#000000" stroke="#000000" points="1573.0076,-181.5001 1583.0076,-178 1573.0076,-174.5001 1573.0076,-181.5001"/>
</g>
<!-- OrderModule -->
<g id="node21" class="node">
<title>OrderModule</title>
<polygon fill="#8dd3c7" stroke="#000000" points="286.1924,-122 283.1924,-126 262.1924,-126 259.1924,-122 193.8076,-122 193.8076,-86 286.1924,-86 286.1924,-122"/>
<text text-anchor="middle" x="240" y="-99.8" font-family="Times,serif" font-size="14.00" fill="#000000">OrderModule</text>
</g>
<!-- OrderModule&#45;&gt;AppModule -->
<g id="edge21" class="edge">
<title>OrderModule&#45;&gt;AppModule</title>
<path fill="none" stroke="#000000" d="M240,-122.2479C240,-145.0179 240,-181 240,-181 240,-181 1573.1724,-181 1573.1724,-181"/>
<polygon fill="#000000" stroke="#000000" points="1573.1724,-184.5001 1583.1724,-181 1573.1723,-177.5001 1573.1724,-184.5001"/>
</g>
<!-- ModalModule.forRoot() -->
<g id="node22" class="node">
<title>ModalModule.forRoot()</title>
<polygon fill="#8dd3c7" stroke="#000000" points="176.4699,-122 173.4699,-126 152.4699,-126 149.4699,-122 23.5301,-122 23.5301,-86 176.4699,-86 176.4699,-122"/>
<text text-anchor="middle" x="100" y="-99.8" font-family="Times,serif" font-size="14.00" fill="#000000">ModalModule.forRoot()</text>
</g>
<!-- ModalModule.forRoot()&#45;&gt;AppModule -->
<g id="edge22" class="edge">
<title>ModalModule.forRoot()&#45;&gt;AppModule</title>
<path fill="none" stroke="#000000" d="M100,-122.1532C100,-145.7566 100,-184 100,-184 100,-184 1573.0209,-184 1573.0209,-184"/>
<polygon fill="#000000" stroke="#000000" points="1573.021,-187.5001 1583.0209,-184 1573.0209,-180.5001 1573.021,-187.5001"/>
</g>
</g>
</svg>
