<?xml version="1.0" encoding="UTF-8" standalone="no"?>
<!DOCTYPE svg PUBLIC "-//W3C//DTD SVG 1.1//EN"
 "http://www.w3.org/Graphics/SVG/1.1/DTD/svg11.dtd">
<!-- Generated by graphviz version 2.40.1 (20161225.0304)
 -->
<!-- Title: dependencies Pages: 1 -->
<svg width="3436pt" height="290pt"
 viewBox="0.00 0.00 3436.00 290.00" xmlns="http://www.w3.org/2000/svg" xmlns:xlink="http://www.w3.org/1999/xlink">
<g id="graph0" class="graph" transform="scale(1 1) rotate(0) translate(4 286)">
<title>dependencies</title>
<polygon fill="#ffffff" stroke="transparent" points="-4,4 -4,-286 3432,-286 3432,4 -4,4"/>
<text text-anchor="start" x="1693.0091" y="-42.4" font-family="sans-serif" font-weight="bold" font-size="14.00" fill="#000000">Legend</text>
<polygon fill="#ffffb3" stroke="transparent" points="1480,-10 1480,-30 1500,-30 1500,-10 1480,-10"/>
<text text-anchor="start" x="1503.629" y="-15.4" font-family="sans-serif" font-size="14.00" fill="#000000"> &#160;Declarations</text>
<polygon fill="#8dd3c7" stroke="transparent" points="1593,-10 1593,-30 1613,-30 1613,-10 1593,-10"/>
<text text-anchor="start" x="1616.7251" y="-15.4" font-family="sans-serif" font-size="14.00" fill="#000000"> &#160;Module</text>
<polygon fill="#80b1d3" stroke="transparent" points="1679,-10 1679,-30 1699,-30 1699,-10 1679,-10"/>
<text text-anchor="start" x="1702.7812" y="-15.4" font-family="sans-serif" font-size="14.00" fill="#000000"> &#160;Bootstrap</text>
<polygon fill="#fdb462" stroke="transparent" points="1776,-10 1776,-30 1796,-30 1796,-10 1776,-10"/>
<text text-anchor="start" x="1799.6732" y="-15.4" font-family="sans-serif" font-size="14.00" fill="#000000"> &#160;Providers</text>
<polygon fill="#fb8072" stroke="transparent" points="1872,-10 1872,-30 1892,-30 1892,-10 1872,-10"/>
<text text-anchor="start" x="1895.7258" y="-15.4" font-family="sans-serif" font-size="14.00" fill="#000000"> &#160;Exports</text>
<g id="clust1" class="cluster">
<title>cluster_AppModule</title>
<polygon fill="none" stroke="#000000" stroke-dasharray="1,5" points="8,-70 8,-274 3076,-274 3076,-70 8,-70"/>
</g>
<g id="clust2" class="cluster">
<title>cluster_AppModule_declarations</title>
<polygon fill="none" stroke="#000000" points="16,-78 16,-130 2100,-130 2100,-78 16,-78"/>
</g>
<g id="clust17" class="cluster">
<title>cluster_AppModule_imports</title>
<polygon fill="none" stroke="#000000" points="2108,-78 2108,-130 3068,-130 3068,-78 2108,-78"/>
</g>
<g id="clust19" class="cluster">
<title>cluster_AppModule_bootstrap</title>
<polygon fill="none" stroke="#000000" points="1508,-214 1508,-266 1632,-266 1632,-214 1508,-214"/>
</g>
<g id="clust21" class="cluster">
<title>cluster_AppRoutingModule</title>
<polygon fill="none" stroke="#000000" stroke-dasharray="1,5" points="3084,-138 3084,-206 3420,-206 3420,-138 3084,-138"/>
</g>
<g id="clust23" class="cluster">
<title>cluster_AppRoutingModule_imports</title>
<polygon fill="none" stroke="#000000" points="3218,-146 3218,-198 3412,-198 3412,-146 3218,-146"/>
</g>
<g id="clust24" class="cluster">
<title>cluster_AppRoutingModule_exports</title>
<polygon fill="none" stroke="#000000" points="3092,-146 3092,-198 3210,-198 3210,-146 3092,-146"/>
</g>
<!-- AppComponent -->
<g id="node1" class="node">
<title>AppComponent</title>
<polygon fill="#ffffb3" stroke="#000000" points="2091.9399,-122 1986.0601,-122 1986.0601,-86 2091.9399,-86 2091.9399,-122"/>
<text text-anchor="middle" x="2039" y="-99.8" font-family="Times,serif" font-size="14.00" fill="#000000">AppComponent</text>
</g>
<!-- AppModule -->
<g id="node15" class="node">
<title>AppModule</title>
<polygon fill="#8dd3c7" stroke="#000000" points="1611.6571,-190 1608.6571,-194 1587.6571,-194 1584.6571,-190 1528.3429,-190 1528.3429,-154 1611.6571,-154 1611.6571,-190"/>
<text text-anchor="middle" x="1570" y="-167.8" font-family="Times,serif" font-size="14.00" fill="#000000">AppModule</text>
</g>
<!-- AppComponent&#45;&gt;AppModule -->
<g id="edge1" class="edge">
<title>AppComponent&#45;&gt;AppModule</title>
<path fill="none" stroke="#000000" d="M2039,-122.002C2039,-139.6754 2039,-164 2039,-164 2039,-164 1622.0334,-164 1622.0334,-164"/>
<polygon fill="#000000" stroke="#000000" points="1622.0334,-160.5001 1612.0334,-164 1622.0333,-167.5001 1622.0334,-160.5001"/>
</g>
<!-- HomeComponent -->
<g id="node2" class="node">
<title>HomeComponent</title>
<polygon fill="#ffffb3" stroke="#000000" points="1968.5451,-122 1853.4549,-122 1853.4549,-86 1968.5451,-86 1968.5451,-122"/>
<text text-anchor="middle" x="1911" y="-99.8" font-family="Times,serif" font-size="14.00" fill="#000000">HomeComponent</text>
</g>
<!-- HomeComponent&#45;&gt;AppModule -->
<g id="edge2" class="edge">
<title>HomeComponent&#45;&gt;AppModule</title>
<path fill="none" stroke="#000000" d="M1911,-122.0352C1911,-138.7344 1911,-161 1911,-161 1911,-161 1621.8133,-161 1621.8133,-161"/>
<polygon fill="#000000" stroke="#000000" points="1621.8133,-157.5001 1611.8133,-161 1621.8133,-164.5001 1621.8133,-157.5001"/>
</g>
<!-- NavbarComponent -->
<g id="node3" class="node">
<title>NavbarComponent</title>
<polygon fill="#ffffb3" stroke="#000000" points="1835.0297,-122 1712.9703,-122 1712.9703,-86 1835.0297,-86 1835.0297,-122"/>
<text text-anchor="middle" x="1774" y="-99.8" font-family="Times,serif" font-size="14.00" fill="#000000">NavbarComponent</text>
</g>
<!-- NavbarComponent&#45;&gt;AppModule -->
<g id="edge3" class="edge">
<title>NavbarComponent&#45;&gt;AppModule</title>
<path fill="none" stroke="#000000" d="M1774,-122.2819C1774,-137.9478 1774,-158 1774,-158 1774,-158 1621.7747,-158 1621.7747,-158"/>
<polygon fill="#000000" stroke="#000000" points="1621.7747,-154.5001 1611.7747,-158 1621.7747,-161.5001 1621.7747,-154.5001"/>
</g>
<!-- FooterComponent -->
<g id="node4" class="node">
<title>FooterComponent</title>
<polygon fill="#ffffb3" stroke="#000000" points="1694.8809,-122 1577.1191,-122 1577.1191,-86 1694.8809,-86 1694.8809,-122"/>
<text text-anchor="middle" x="1636" y="-99.8" font-family="Times,serif" font-size="14.00" fill="#000000">FooterComponent</text>
</g>
<!-- FooterComponent&#45;&gt;AppModule -->
<g id="edge4" class="edge">
<title>FooterComponent&#45;&gt;AppModule</title>
<path fill="none" stroke="#000000" d="M1594.4439,-122.2228C1594.4439,-122.2228 1594.4439,-143.7269 1594.4439,-143.7269"/>
<polygon fill="#000000" stroke="#000000" points="1590.944,-143.7269 1594.4439,-153.7269 1597.944,-143.727 1590.944,-143.7269"/>
</g>
<!-- FeedComponent -->
<g id="node5" class="node">
<title>FeedComponent</title>
<polygon fill="#ffffb3" stroke="#000000" points="1559.0452,-122 1450.9548,-122 1450.9548,-86 1559.0452,-86 1559.0452,-122"/>
<text text-anchor="middle" x="1505" y="-99.8" font-family="Times,serif" font-size="14.00" fill="#000000">FeedComponent</text>
</g>
<!-- FeedComponent&#45;&gt;AppModule -->
<g id="edge5" class="edge">
<title>FeedComponent&#45;&gt;AppModule</title>
<path fill="none" stroke="#000000" d="M1543.722,-122.2228C1543.722,-122.2228 1543.722,-143.7269 1543.722,-143.7269"/>
<polygon fill="#000000" stroke="#000000" points="1540.222,-143.7269 1543.722,-153.7269 1547.222,-143.727 1540.222,-143.7269"/>
</g>
<!-- PerfilLateralComponent -->
<g id="node6" class="node">
<title>PerfilLateralComponent</title>
<polygon fill="#ffffb3" stroke="#000000" points="1433.0702,-122 1280.9298,-122 1280.9298,-86 1433.0702,-86 1433.0702,-122"/>
<text text-anchor="middle" x="1357" y="-99.8" font-family="Times,serif" font-size="14.00" fill="#000000">PerfilLateralComponent</text>
</g>
<!-- PerfilLateralComponent&#45;&gt;AppModule -->
<g id="edge6" class="edge">
<title>PerfilLateralComponent&#45;&gt;AppModule</title>
<path fill="none" stroke="#000000" d="M1357,-122.2819C1357,-137.9478 1357,-158 1357,-158 1357,-158 1518.1722,-158 1518.1722,-158"/>
<polygon fill="#000000" stroke="#000000" points="1518.1722,-161.5001 1528.1722,-158 1518.1722,-154.5001 1518.1722,-161.5001"/>
</g>
<!-- LoginComponent -->
<g id="node7" class="node">
<title>LoginComponent</title>
<polygon fill="#ffffb3" stroke="#000000" points="1263.2758,-122 1148.7242,-122 1148.7242,-86 1263.2758,-86 1263.2758,-122"/>
<text text-anchor="middle" x="1206" y="-99.8" font-family="Times,serif" font-size="14.00" fill="#000000">LoginComponent</text>
</g>
<!-- LoginComponent&#45;&gt;AppModule -->
<g id="edge7" class="edge">
<title>LoginComponent&#45;&gt;AppModule</title>
<path fill="none" stroke="#000000" d="M1206,-122.0352C1206,-138.7344 1206,-161 1206,-161 1206,-161 1518.2446,-161 1518.2446,-161"/>
<polygon fill="#000000" stroke="#000000" points="1518.2446,-164.5001 1528.2446,-161 1518.2445,-157.5001 1518.2446,-164.5001"/>
</g>
<!-- CadastroComponent -->
<g id="node8" class="node">
<title>CadastroComponent</title>
<polygon fill="#ffffb3" stroke="#000000" points="1130.594,-122 999.406,-122 999.406,-86 1130.594,-86 1130.594,-122"/>
<text text-anchor="middle" x="1065" y="-99.8" font-family="Times,serif" font-size="14.00" fill="#000000">CadastroComponent</text>
</g>
<!-- CadastroComponent&#45;&gt;AppModule -->
<g id="edge8" class="edge">
<title>CadastroComponent&#45;&gt;AppModule</title>
<path fill="none" stroke="#000000" d="M1065,-122.002C1065,-139.6754 1065,-164 1065,-164 1065,-164 1518.2441,-164 1518.2441,-164"/>
<polygon fill="#000000" stroke="#000000" points="1518.2441,-167.5001 1528.2441,-164 1518.2441,-160.5001 1518.2441,-167.5001"/>
</g>
<!-- PostTemaComponent -->
<g id="node9" class="node">
<title>PostTemaComponent</title>
<polygon fill="#ffffb3" stroke="#000000" points="981.823,-122 844.177,-122 844.177,-86 981.823,-86 981.823,-122"/>
<text text-anchor="middle" x="913" y="-99.8" font-family="Times,serif" font-size="14.00" fill="#000000">PostTemaComponent</text>
</g>
<!-- PostTemaComponent&#45;&gt;AppModule -->
<g id="edge9" class="edge">
<title>PostTemaComponent&#45;&gt;AppModule</title>
<path fill="none" stroke="#000000" d="M913,-122.1686C913,-141.0898 913,-168 913,-168 913,-168 1518.1531,-168 1518.1531,-168"/>
<polygon fill="#000000" stroke="#000000" points="1518.1531,-171.5001 1528.1531,-168 1518.1531,-164.5001 1518.1531,-171.5001"/>
</g>
<!-- PutPostagemComponent -->
<g id="node10" class="node">
<title>PutPostagemComponent</title>
<polygon fill="#ffffb3" stroke="#000000" points="826.4438,-122 671.5562,-122 671.5562,-86 826.4438,-86 826.4438,-122"/>
<text text-anchor="middle" x="749" y="-99.8" font-family="Times,serif" font-size="14.00" fill="#000000">PutPostagemComponent</text>
</g>
<!-- PutPostagemComponent&#45;&gt;AppModule -->
<g id="edge10" class="edge">
<title>PutPostagemComponent&#45;&gt;AppModule</title>
<path fill="none" stroke="#000000" d="M723.2595,-122.0267C723.2595,-142.7672 723.2595,-174 723.2595,-174 723.2595,-174 1518.2988,-174 1518.2988,-174"/>
<polygon fill="#000000" stroke="#000000" points="1518.2989,-177.5001 1528.2988,-174 1518.2988,-170.5001 1518.2989,-177.5001"/>
</g>
<!-- PutPostagemComponent&#45;&gt;AppModule -->
<g id="edge11" class="edge">
<title>PutPostagemComponent&#45;&gt;AppModule</title>
<path fill="none" stroke="#000000" d="M774.7405,-122.308C774.7405,-142.1455 774.7405,-171 774.7405,-171 774.7405,-171 1518.0844,-171 1518.0844,-171"/>
<polygon fill="#000000" stroke="#000000" points="1518.0844,-174.5001 1528.0844,-171 1518.0844,-167.5001 1518.0844,-174.5001"/>
</g>
<!-- DeletePostagemComponent -->
<g id="node11" class="node">
<title>DeletePostagemComponent</title>
<polygon fill="#ffffb3" stroke="#000000" points="654.3019,-122 481.6981,-122 481.6981,-86 654.3019,-86 654.3019,-122"/>
<text text-anchor="middle" x="568" y="-99.8" font-family="Times,serif" font-size="14.00" fill="#000000">DeletePostagemComponent</text>
</g>
<!-- DeletePostagemComponent&#45;&gt;AppModule -->
<g id="edge12" class="edge">
<title>DeletePostagemComponent&#45;&gt;AppModule</title>
<path fill="none" stroke="#000000" d="M568,-122.0449C568,-143.6623 568,-177 568,-177 568,-177 1518.221,-177 1518.221,-177"/>
<polygon fill="#000000" stroke="#000000" points="1518.221,-180.5001 1528.221,-177 1518.221,-173.5001 1518.221,-180.5001"/>
</g>
<!-- PutTemaComponent -->
<g id="node12" class="node">
<title>PutTemaComponent</title>
<polygon fill="#ffffb3" stroke="#000000" points="463.8781,-122 332.1219,-122 332.1219,-86 463.8781,-86 463.8781,-122"/>
<text text-anchor="middle" x="398" y="-99.8" font-family="Times,serif" font-size="14.00" fill="#000000">PutTemaComponent</text>
</g>
<!-- PutTemaComponent&#45;&gt;AppModule -->
<g id="edge13" class="edge">
<title>PutTemaComponent&#45;&gt;AppModule</title>
<path fill="none" stroke="#000000" d="M398,-122.2479C398,-145.0179 398,-181 398,-181 398,-181 1518.2879,-181 1518.2879,-181"/>
<polygon fill="#000000" stroke="#000000" points="1518.2879,-184.5001 1528.2879,-181 1518.2879,-177.5001 1518.2879,-184.5001"/>
</g>
<!-- DeleteTemaComponent -->
<g id="node13" class="node">
<title>DeleteTemaComponent</title>
<polygon fill="#ffffb3" stroke="#000000" points="313.7366,-122 164.2634,-122 164.2634,-86 313.7366,-86 313.7366,-122"/>
<text text-anchor="middle" x="239" y="-99.8" font-family="Times,serif" font-size="14.00" fill="#000000">DeleteTemaComponent</text>
</g>
<!-- DeleteTemaComponent&#45;&gt;AppModule -->
<g id="edge14" class="edge">
<title>DeleteTemaComponent&#45;&gt;AppModule</title>
<path fill="none" stroke="#000000" d="M239,-122.1532C239,-145.7566 239,-184 239,-184 239,-184 1518.3376,-184 1518.3376,-184"/>
<polygon fill="#000000" stroke="#000000" points="1518.3377,-187.5001 1528.3376,-184 1518.3376,-180.5001 1518.3377,-187.5001"/>
</g>
<!-- AlertasComponent -->
<g id="node14" class="node">
<title>AlertasComponent</title>
<polygon fill="#ffffb3" stroke="#000000" points="145.7548,-122 24.2452,-122 24.2452,-86 145.7548,-86 145.7548,-122"/>
<text text-anchor="middle" x="85" y="-99.8" font-family="Times,serif" font-size="14.00" fill="#000000">AlertasComponent</text>
</g>
<!-- AlertasComponent&#45;&gt;AppModule -->
<g id="edge15" class="edge">
<title>AlertasComponent&#45;&gt;AppModule</title>
<path fill="none" stroke="#000000" d="M85,-122.0098C85,-146.4207 85,-187 85,-187 85,-187 1518.3417,-187 1518.3417,-187"/>
<polygon fill="#000000" stroke="#000000" points="1518.3417,-190.5001 1528.3417,-187 1518.3416,-183.5001 1518.3417,-190.5001"/>
</g>
<!-- AppComponent  -->
<g id="node23" class="node">
<title>AppComponent </title>
<polygon fill="#80b1d3" stroke="#000000" points="1624.439,-258 1515.561,-258 1515.561,-222 1624.439,-222 1624.439,-258"/>
<text text-anchor="middle" x="1570" y="-235.8" font-family="Times,serif" font-size="14.00" fill="#000000">AppComponent </text>
</g>
<!-- AppModule&#45;&gt;AppComponent  -->
<g id="edge23" class="edge">
<title>AppModule&#45;&gt;AppComponent </title>
<path fill="none" stroke="#000000" stroke-dasharray="1,5" d="M1570,-190.2228C1570,-190.2228 1570,-211.7269 1570,-211.7269"/>
<polygon fill="#000000" stroke="#000000" points="1566.5001,-211.7269 1570,-221.7269 1573.5001,-211.727 1566.5001,-211.7269"/>
</g>
<!-- BrowserModule -->
<g id="node16" class="node">
<title>BrowserModule</title>
<polygon fill="#8dd3c7" stroke="#000000" points="2913.4734,-122 2910.4734,-126 2889.4734,-126 2886.4734,-122 2806.5266,-122 2806.5266,-86 2913.4734,-86 2913.4734,-122"/>
<text text-anchor="middle" x="2860" y="-99.8" font-family="Times,serif" font-size="14.00" fill="#000000">BrowserModule</text>
</g>
<!-- BrowserModule&#45;&gt;AppModule -->
<g id="edge16" class="edge">
<title>BrowserModule&#45;&gt;AppModule</title>
<path fill="none" stroke="#000000" d="M2860,-122.1532C2860,-145.7566 2860,-184 2860,-184 2860,-184 1621.8227,-184 1621.8227,-184"/>
<polygon fill="#000000" stroke="#000000" points="1621.8227,-180.5001 1611.8227,-184 1621.8226,-187.5001 1621.8227,-180.5001"/>
</g>
<!-- AppRoutingModule -->
<g id="node17" class="node">
<title>AppRoutingModule</title>
<polygon fill="#8dd3c7" stroke="#000000" points="3060.2744,-122 3057.2744,-126 3036.2744,-126 3033.2744,-122 2931.7256,-122 2931.7256,-86 3060.2744,-86 3060.2744,-122"/>
<text text-anchor="middle" x="2996" y="-99.8" font-family="Times,serif" font-size="14.00" fill="#000000">AppRoutingModule</text>
</g>
<!-- AppRoutingModule&#45;&gt;AppModule -->
<g id="edge17" class="edge">
<title>AppRoutingModule&#45;&gt;AppModule</title>
<path fill="none" stroke="#000000" d="M2996,-122.0098C2996,-146.4207 2996,-187 2996,-187 2996,-187 1621.9052,-187 1621.9052,-187"/>
<polygon fill="#000000" stroke="#000000" points="1621.9052,-183.5001 1611.9052,-187 1621.9052,-190.5001 1621.9052,-183.5001"/>
</g>
<!-- RouterModule  -->
<g id="node25" class="node">
<title>RouterModule </title>
<polygon fill="#fb8072" stroke="#000000" points="3201.6523,-190 3100.3477,-190 3100.3477,-154 3201.6523,-154 3201.6523,-190"/>
<text text-anchor="middle" x="3151" y="-167.8" font-family="Times,serif" font-size="14.00" fill="#000000">RouterModule </text>
</g>
<!-- AppRoutingModule&#45;&gt;RouterModule  -->
<g id="edge25" class="edge">
<title>AppRoutingModule&#45;&gt;RouterModule </title>
<path fill="none" stroke="#000000" stroke-dasharray="5,2" d="M3060.3874,-110C3102.9734,-110 3151,-110 3151,-110 3151,-110 3151,-143.7333 3151,-143.7333"/>
<polygon fill="#000000" stroke="#000000" points="3147.5001,-143.7333 3151,-153.7333 3154.5001,-143.7333 3147.5001,-143.7333"/>
</g>
<!-- FontAwesomeModule -->
<g id="node18" class="node">
<title>FontAwesomeModule</title>
<polygon fill="#8dd3c7" stroke="#000000" points="2617.7007,-122 2614.7007,-126 2593.7007,-126 2590.7007,-122 2476.2993,-122 2476.2993,-86 2617.7007,-86 2617.7007,-122"/>
<text text-anchor="middle" x="2547" y="-99.8" font-family="Times,serif" font-size="14.00" fill="#000000">FontAwesomeModule</text>
</g>
<!-- FontAwesomeModule&#45;&gt;AppModule -->
<g id="edge18" class="edge">
<title>FontAwesomeModule&#45;&gt;AppModule</title>
<path fill="none" stroke="#000000" d="M2547,-122.0449C2547,-143.6623 2547,-177 2547,-177 2547,-177 1621.6679,-177 1621.6679,-177"/>
<polygon fill="#000000" stroke="#000000" points="1621.668,-173.5001 1611.6679,-177 1621.6679,-180.5001 1621.668,-173.5001"/>
</g>
<!-- HttpClientModule -->
<g id="node19" class="node">
<title>HttpClientModule</title>
<polygon fill="#8dd3c7" stroke="#000000" points="2458.1611,-122 2455.1611,-126 2434.1611,-126 2431.1611,-122 2339.8389,-122 2339.8389,-86 2458.1611,-86 2458.1611,-122"/>
<text text-anchor="middle" x="2399" y="-99.8" font-family="Times,serif" font-size="14.00" fill="#000000">HttpClientModule</text>
</g>
<!-- HttpClientModule&#45;&gt;AppModule -->
<g id="edge19" class="edge">
<title>HttpClientModule&#45;&gt;AppModule</title>
<path fill="none" stroke="#000000" d="M2399,-122.0267C2399,-142.7672 2399,-174 2399,-174 2399,-174 1621.6784,-174 1621.6784,-174"/>
<polygon fill="#000000" stroke="#000000" points="1621.6784,-170.5001 1611.6784,-174 1621.6783,-177.5001 1621.6784,-170.5001"/>
</g>
<!-- FormsModule -->
<g id="node20" class="node">
<title>FormsModule</title>
<polygon fill="#8dd3c7" stroke="#000000" points="2321.8288,-122 2318.8288,-126 2297.8288,-126 2294.8288,-122 2226.1712,-122 2226.1712,-86 2321.8288,-86 2321.8288,-122"/>
<text text-anchor="middle" x="2274" y="-99.8" font-family="Times,serif" font-size="14.00" fill="#000000">FormsModule</text>
</g>
<!-- FormsModule&#45;&gt;AppModule -->
<g id="edge20" class="edge">
<title>FormsModule&#45;&gt;AppModule</title>
<path fill="none" stroke="#000000" d="M2274,-122.308C2274,-142.1455 2274,-171 2274,-171 2274,-171 1621.6698,-171 1621.6698,-171"/>
<polygon fill="#000000" stroke="#000000" points="1621.6698,-167.5001 1611.6698,-171 1621.6697,-174.5001 1621.6698,-167.5001"/>
</g>
<!-- OrderModule -->
<g id="node21" class="node">
<title>OrderModule</title>
<polygon fill="#8dd3c7" stroke="#000000" points="2208.1924,-122 2205.1924,-126 2184.1924,-126 2181.1924,-122 2115.8076,-122 2115.8076,-86 2208.1924,-86 2208.1924,-122"/>
<text text-anchor="middle" x="2162" y="-99.8" font-family="Times,serif" font-size="14.00" fill="#000000">OrderModule</text>
</g>
<!-- OrderModule&#45;&gt;AppModule -->
<g id="edge21" class="edge">
<title>OrderModule&#45;&gt;AppModule</title>
<path fill="none" stroke="#000000" d="M2162,-122.1686C2162,-141.0898 2162,-168 2162,-168 2162,-168 1622.1006,-168 1622.1006,-168"/>
<polygon fill="#000000" stroke="#000000" points="1622.1006,-164.5001 1612.1006,-168 1622.1006,-171.5001 1622.1006,-164.5001"/>
</g>
<!-- ModalModule.forRoot() -->
<g id="node22" class="node">
<title>ModalModule.forRoot()</title>
<polygon fill="#8dd3c7" stroke="#000000" points="2788.4699,-122 2785.4699,-126 2764.4699,-126 2761.4699,-122 2635.5301,-122 2635.5301,-86 2788.4699,-86 2788.4699,-122"/>
<text text-anchor="middle" x="2712" y="-99.8" font-family="Times,serif" font-size="14.00" fill="#000000">ModalModule.forRoot()</text>
</g>
<!-- ModalModule.forRoot()&#45;&gt;AppModule -->
<g id="edge22" class="edge">
<title>ModalModule.forRoot()&#45;&gt;AppModule</title>
<path fill="none" stroke="#000000" d="M2712,-122.2479C2712,-145.0179 2712,-181 2712,-181 2712,-181 1621.6583,-181 1621.6583,-181"/>
<polygon fill="#000000" stroke="#000000" points="1621.6583,-177.5001 1611.6583,-181 1621.6582,-184.5001 1621.6583,-177.5001"/>
</g>
<!-- RouterModule.forRoot(args) -->
<g id="node24" class="node">
<title>RouterModule.forRoot(args)</title>
<polygon fill="#8dd3c7" stroke="#000000" points="3403.8419,-190 3400.8419,-194 3379.8419,-194 3376.8419,-190 3226.1581,-190 3226.1581,-154 3403.8419,-154 3403.8419,-190"/>
<text text-anchor="middle" x="3315" y="-167.8" font-family="Times,serif" font-size="14.00" fill="#000000">RouterModule.forRoot(args)</text>
</g>
<!-- RouterModule.forRoot(args)&#45;&gt;AppRoutingModule -->
<g id="edge24" class="edge">
<title>RouterModule.forRoot(args)&#45;&gt;AppRoutingModule</title>
<path fill="none" stroke="#000000" d="M3315,-153.7079C3315,-131.7943 3315,-98 3315,-98 3315,-98 3070.5544,-98 3070.5544,-98"/>
<polygon fill="#000000" stroke="#000000" points="3070.5544,-94.5001 3060.5544,-98 3070.5544,-101.5001 3070.5544,-94.5001"/>
</g>
</g>
</svg>
